<?xml version="1.0" encoding="utf-8"?>
<!-- Generator: Adobe Illustrator 23.0.5, SVG Export Plug-In . SVG Version: 6.00 Build 0)  -->
<svg version="1.1" id="Warstwa_1" xmlns="http://www.w3.org/2000/svg" xmlns:xlink="http://www.w3.org/1999/xlink" x="0px" y="0px"
	 viewBox="0 0 510 120" style="enable-background:new 0 0 510 120;" xml:space="preserve">
<style type="text/css">
	.st0{fill:#16191A;}
</style>
<g>
	<g>
		<path class="st0" d="M81.77,5.36V7c-2.28,0.41-3.94,1.13-4.97,2.18c-1.03,1.05-1.55,2.54-1.55,4.48
			c-0.02,0.72,0.04,1.53,0.17,2.44l5.08,35.08c0.38,2.56,1.25,4.53,2.61,5.91c1.36,1.38,3.35,2.31,5.98,2.81v1.64H61.32V59.9
			c2.31-0.59,3.97-1.52,4.97-2.77c1-1.25,1.5-3.05,1.5-5.39c0-1.16-0.11-2.56-0.33-4.22l-4.6-32.08l-18.49,46.1h-2l-18.25-46.1
			l-4.88,33.02c-0.19,1.31-0.28,2.5-0.28,3.57c0,4.91,2.3,7.54,6.89,7.88v1.64H5.5V59.9c2.97-0.13,5.21-1.12,6.71-2.98
			c1.5-1.86,2.59-5,3.28-9.4l5.55-36.68c-2.38-2.47-5.1-3.75-8.17-3.84V5.36H33.2l14.66,37.05L62.72,5.36H81.77z"/>
		<path class="st0" d="M155.92,33.5c0,8.6-2.88,15.67-8.63,21.2s-13.1,8.3-22.04,8.3c-8.91,0-16.23-2.77-21.95-8.3
			s-8.58-12.6-8.58-21.2s2.87-15.68,8.61-21.25c5.74-5.56,13.05-8.35,21.93-8.35c8.94,0,16.29,2.78,22.04,8.35
			C153.04,17.82,155.92,24.9,155.92,33.5z M142.46,33.87c0-8.72-1.46-15.37-4.39-19.93c-2.92-4.56-7.2-6.85-12.83-6.85
			c-5.57,0-9.8,2.28-12.71,6.85c-2.91,4.57-4.36,11.24-4.36,20.03c0,8.16,1.47,14.51,4.41,19.04c2.94,4.53,7.16,6.8,12.66,6.8
			c5.41,0,9.63-2.25,12.66-6.75C140.94,48.55,142.46,42.16,142.46,33.87z"/>
		<path class="st0" d="M203.71,7V5.36h18.95V7c-5.44,0.31-8.16,3.38-8.16,9.19V62.2h-1.84l-40.42-45.55V51c0,3,0.55,5.1,1.64,6.3
			c1.09,1.2,3.3,2.07,6.61,2.6v1.64h-19.37V59.9c2.63-0.41,4.51-1.3,5.65-2.7c1.14-1.39,1.71-3.56,1.71-6.5V12.58
			c-2.19-2.25-3.7-3.69-4.53-4.31c-0.83-0.63-1.81-1.05-2.93-1.27V5.36h16.88l32.83,37.66V17.74c0-3.72-0.49-6.29-1.47-7.71
			S206.44,7.59,203.71,7z"/>
		<path class="st0" d="M226.88,61.55V59.9c2.97-0.81,4.9-1.71,5.79-2.7c0.89-0.98,1.34-3.12,1.34-6.4V14.97
			c0-2.53-0.45-4.3-1.34-5.3c-0.89-1-2.82-1.89-5.79-2.67V5.36h28.75c10.44,0,18.69,2.64,24.74,7.93
			c6.05,5.28,9.08,12.24,9.08,20.87c0,8.32-2.71,14.96-8.11,19.93c-5.41,4.97-12.73,7.46-21.95,7.46H226.88z M253.71,8.55h-7.32
			v43.2c0,2.41,0.7,4.11,2.11,5.11c1.41,1,3.75,1.5,7.04,1.5c6.5,0,11.54-2.16,15.1-6.47c3.56-4.31,5.35-10.41,5.35-18.29
			c0-7.72-1.96-13.83-5.86-18.31S260.74,8.55,253.71,8.55z"/>
		<path class="st0" d="M333.25,24.73h1.83v17.4h-1.83c-0.66-4.78-3.25-7.18-7.79-7.18h-9.9v16.51c0,2.53,0.58,4.32,1.73,5.35
			c1.15,1.03,3.14,1.55,5.94,1.55h3.28c5.49,0,9.42-3.49,11.79-10.46h1.64l-1.03,13.65h-42.77V59.9c2.83-0.59,4.7-1.45,5.64-2.56
			c0.93-1.11,1.4-3.26,1.4-6.45V14.79c0-2.63-0.48-4.45-1.44-5.46c-0.96-1.02-2.83-1.79-5.59-2.32V5.36h42.12v12.48h-1.64
			c-0.94-3.66-2.1-6.12-3.49-7.39c-1.39-1.27-3.62-1.9-6.68-1.9h-10.88v23.22h9.9c2.25,0,3.97-0.54,5.16-1.61
			C331.81,29.09,332.69,27.28,333.25,24.73z"/>
		<path class="st0" d="M371.85,5.36V7c-3,0.75-4.94,1.61-5.82,2.58c-0.88,0.97-1.31,2.6-1.31,4.88v37.85c0,2.34,0.62,3.94,1.85,4.78
			c1.23,0.84,3.57,1.27,7.01,1.27c3.6,0,6.39-0.79,8.37-2.37c1.99-1.58,4.06-4.59,6.21-9.03h1.64l-1.64,14.59H345.3V59.9
			c2.98-0.75,4.9-1.64,5.75-2.67c0.85-1.03,1.28-3.17,1.28-6.43V14.88c0-2.53-0.46-4.31-1.38-5.32c-0.92-1.02-2.8-1.87-5.66-2.56
			V5.36H371.85z"/>
		<path class="st0" d="M420.82,5.36V7c-3,0.75-4.94,1.61-5.82,2.58c-0.88,0.97-1.31,2.6-1.31,4.88v37.85c0,2.34,0.62,3.94,1.85,4.78
			c1.24,0.84,3.57,1.27,7.01,1.27c3.6,0,6.39-0.79,8.37-2.37c1.99-1.58,4.06-4.59,6.21-9.03h1.64l-1.64,14.59h-42.87V59.9
			c2.98-0.75,4.9-1.64,5.75-2.67c0.85-1.03,1.28-3.17,1.28-6.43V14.88c0-2.53-0.46-4.31-1.38-5.32c-0.92-1.02-2.8-1.87-5.66-2.56
			V5.36H420.82z"/>
		<path class="st0" d="M505.05,33.5c0,8.6-2.88,15.67-8.63,21.2c-5.75,5.53-13.1,8.3-22.04,8.3c-8.91,0-16.23-2.77-21.95-8.3
			c-5.72-5.53-8.58-12.6-8.58-21.2s2.87-15.68,8.61-21.25c5.74-5.56,13.05-8.35,21.93-8.35c8.94,0,16.29,2.78,22.04,8.35
			C502.17,17.82,505.05,24.9,505.05,33.5z M491.59,33.87c0-8.72-1.46-15.37-4.39-19.93c-2.92-4.56-7.2-6.85-12.83-6.85
			c-5.57,0-9.8,2.28-12.71,6.85c-2.91,4.57-4.36,11.24-4.36,20.03c0,8.16,1.47,14.51,4.41,19.04c2.94,4.53,7.16,6.8,12.66,6.8
			c5.41,0,9.63-2.25,12.66-6.75C490.07,48.55,491.59,42.16,491.59,33.87z"/>
	</g>
	<g>
		<path class="st0" d="M147.86,116.14l-5.33-8.31h-4.17v8.31h-2.6V95.23h8.4c3.83,0,6.55,2.45,6.55,6.3c0,3.76-2.57,5.83-5.42,6.08
			l5.64,8.53H147.86z M148.01,101.53c0-2.35-1.69-3.98-4.17-3.98h-5.49v8h5.49C146.32,105.54,148.01,103.88,148.01,101.53z"/>
		<path class="st0" d="M161.1,116.14V95.23h2.6v20.92H161.1z"/>
		<path class="st0" d="M173.61,113.19l1.54-1.98c1.38,1.54,3.64,2.98,6.58,2.98c3.73,0,4.92-2.01,4.92-3.61
			c0-5.39-12.39-2.42-12.39-9.88c0-3.45,3.07-5.8,7.18-5.8c3.2,0,5.68,1.07,7.43,2.92l-1.57,1.91c-1.57-1.72-3.76-2.51-6.05-2.51
			c-2.51,0-4.3,1.35-4.3,3.32c0,4.7,12.39,2.01,12.39,9.81c0,3.04-2.07,6.15-7.71,6.15C178,116.52,175.33,115.14,173.61,113.19z"/>
		<path class="st0" d="M204.5,116.14V97.55h-6.62v-2.32h15.87v2.32h-6.65v18.59H204.5z"/>
		<path class="st0" d="M221.79,105.7c0-6.18,4.17-10.82,10.38-10.82c6.18,0,10.38,4.64,10.38,10.82c0,6.18-4.2,10.82-10.38,10.82
			C225.96,116.52,221.79,111.88,221.79,105.7z M239.85,105.7c0-4.89-3.01-8.5-7.68-8.5c-4.7,0-7.68,3.61-7.68,8.5
			c0,4.86,2.98,8.5,7.68,8.5C236.84,114.2,239.85,110.56,239.85,105.7z"/>
		<path class="st0" d="M265,116.14l-5.33-8.31h-4.17v8.31h-2.6V95.23h8.4c3.83,0,6.55,2.45,6.55,6.3c0,3.76-2.57,5.83-5.42,6.08
			l5.64,8.53H265z M265.16,101.53c0-2.35-1.69-3.98-4.17-3.98h-5.49v8h5.49C263.46,105.54,265.16,103.88,265.16,101.53z"/>
		<path class="st0" d="M293.17,116.14l-1.85-4.64h-10.41l-1.85,4.64h-2.98l8.4-20.92h3.23l8.43,20.92H293.17z M286.11,97.92
			l-4.45,11.26h8.87L286.11,97.92z"/>
		<path class="st0" d="M319.95,116.14l-12.2-16.68v16.68h-2.6V95.23h2.67l12.04,16.34V95.23h2.6v20.92H319.95z"/>
		<path class="st0" d="M338.8,116.14V97.55h-6.62v-2.32h15.87v2.32h-6.65v18.59H338.8z"/>
		<path class="st0" d="M357.78,116.14V95.23h13.7v2.32h-11.1v6.74h10.88v2.32h-10.88v7.21h11.1v2.32H357.78z"/>
	</g>
</g>
</svg>
