<?xml version="1.0" encoding="utf-8"?>
<!-- Generator: Adobe Illustrator 23.0.5, SVG Export Plug-In . SVG Version: 6.00 Build 0)  -->
<svg version="1.1" id="Warstwa_1" xmlns="http://www.w3.org/2000/svg" xmlns:xlink="http://www.w3.org/1999/xlink" x="0px" y="0px"
	 viewBox="0 0 512 512" style="enable-background:new 0 0 512 512;" xml:space="preserve">
<style type="text/css">
	.st0{fill:#228240;}
	.st1{fill:#B62E2D;}
</style>
<rect y="0.26" class="st0" width="170" height="512"/>
<rect x="341" y="0.26" class="st1" width="170" height="512"/>
<path d="M416.64,104.48v8.87c-10.65,2.19-18.38,6.12-23.18,11.79c-4.81,5.66-7.22,13.73-7.22,24.2c-0.07,3.88,0.19,8.28,0.77,13.16
	l23.69,189.53c1.76,13.85,5.81,24.49,12.15,31.92c6.34,7.43,15.64,12.5,27.9,15.2v8.87H321.27v-8.87
	c10.79-3.21,18.52-8.19,23.18-14.95c4.66-6.75,7-16.47,7-29.14c0-6.25-0.51-13.85-1.53-22.8l-21.44-173.31l-86.24,249.07h-9.34
	l-85.08-249.07l-22.74,178.38c-0.87,7.1-1.31,13.52-1.31,19.26c0,26.52,10.72,40.71,32.15,42.56v8.87H61v-8.87
	c13.85-0.68,24.28-6.04,31.28-16.09c7-10.04,12.09-26.99,15.28-50.8l25.87-198.16c-11.09-13.33-23.79-20.24-38.09-20.74v-8.87h94.8
	l68.37,200.15l69.29-200.15H416.64z"/>
</svg>
